<?xml version="1.0" standalone="no"?>
<!DOCTYPE svg PUBLIC "-//W3C//DTD SVG 20010904//EN"
 "http://www.w3.org/TR/2001/REC-SVG-20010904/DTD/svg10.dtd">
<svg version="1.0" xmlns="http://www.w3.org/2000/svg"
 width="1080.000000pt" height="1080.000000pt" viewBox="0 0 1080.000000 1080.000000"
 preserveAspectRatio="xMidYMid meet">

<g transform="translate(0.000000,1080.000000) scale(0.100000,-0.100000)"
fill="#000000" stroke="none">
<path d="M5136 8053 c-17 -5 -18 -12 -12 -87 3 -44 6 -168 6 -274 l0 -193 58
3 57 3 3 78 3 77 62 0 62 -1 54 -74 55 -75 58 0 c60 0 71 9 44 39 -7 9 -32 42
-54 74 l-40 59 48 47 c65 65 76 125 39 210 -39 93 -111 122 -297 120 -70 -1
-136 -3 -146 -6z m294 -110 c36 -24 40 -33 40 -85 0 -39 -4 -50 -31 -72 -27
-23 -39 -26 -109 -26 l-78 0 -7 89 c-4 49 -4 94 0 100 11 19 157 14 185 -6z"/>
<path d="M5785 7871 c-76 -35 -135 -122 -135 -201 0 -72 53 -153 123 -188 39
-20 59 -22 139 -20 l93 3 3 30 c2 17 -3 38 -10 48 -11 15 -18 16 -47 6 -26 -9
-45 -9 -84 0 -63 14 -97 44 -97 84 0 26 3 29 23 23 12 -4 49 -11 82 -17 33 -6
88 -17 122 -26 35 -8 69 -13 77 -10 23 9 30 81 12 135 -39 117 -190 184 -301
133z m171 -102 c12 -13 26 -37 30 -53 l7 -29 -52 6 c-80 10 -161 30 -161 42 1
14 32 50 50 58 31 13 102 0 126 -24z"/>
<path d="M6220 7721 c0 -43 10 -51 66 -51 46 0 98 -22 118 -51 17 -25 21 -65
7 -73 -10 -7 -64 9 -103 30 -15 8 -54 14 -90 14 -56 0 -68 -3 -88 -25 -34 -36
-35 -133 -1 -168 35 -39 131 -71 173 -59 31 9 34 7 34 -12 -1 -14 10 -26 34
-38 45 -22 59 -22 67 0 3 9 28 69 55 133 53 130 57 160 28 217 -37 71 -138
122 -240 122 l-60 0 0 -39z m105 -220 c61 -23 68 -45 26 -85 -33 -32 -52 -31
-108 4 -25 15 -33 27 -33 48 0 55 33 64 115 33z"/>
<path d="M4118 7699 c-41 -21 -46 -33 -25 -64 28 -41 28 -54 -3 -70 l-29 -15
20 -35 c18 -31 23 -33 46 -24 34 13 39 6 92 -97 23 -44 52 -91 65 -103 34 -32
102 -39 147 -14 92 50 104 66 71 96 -22 21 -52 22 -77 3 -39 -28 -74 4 -127
117 -16 32 -28 60 -28 62 0 2 18 14 40 26 44 25 50 45 21 80 l-19 24 -42 -24
c-23 -12 -42 -21 -44 -20 -1 2 -13 21 -25 42 -26 42 -32 44 -83 16z"/>
<path d="M4736 7544 c-23 -23 -20 -80 5 -105 17 -17 29 -20 58 -15 20 3 42 13
48 23 19 25 16 77 -5 96 -23 21 -86 22 -106 1z"/>
<path d="M3964 7508 c-16 -12 -33 -25 -39 -30 -5 -5 -12 -44 -15 -87 l-5 -78
-67 20 c-37 11 -73 17 -80 13 -46 -22 -73 -45 -73 -61 0 -13 10 -22 30 -27 56
-14 160 -45 178 -52 15 -7 17 -23 17 -127 0 -134 3 -138 63 -88 37 30 37 31
37 105 0 42 4 74 10 74 5 0 39 -10 75 -21 l65 -22 44 34 c47 35 54 47 34 54
-7 2 -61 18 -120 36 l-108 33 0 117 c0 65 -4 120 -9 123 -5 3 -22 -4 -37 -16z"/>
<path d="M6670 7504 c-84 -36 -123 -100 -124 -199 0 -81 15 -116 70 -165 69
-60 153 -84 209 -58 30 13 31 29 8 69 -14 24 -24 30 -48 28 -60 -4 -77 2 -106
32 -35 37 -38 82 -10 137 47 92 183 80 212 -18 12 -41 13 -41 58 -38 l46 3 -2
39 c-6 84 -134 186 -232 186 -25 -1 -62 -8 -81 -16z"/>
<path d="M7158 7313 l-37 -37 -24 22 -23 22 -28 -29 c-28 -29 -29 -39 -4 -73
10 -14 2 -26 -52 -82 -85 -88 -100 -113 -100 -163 0 -38 6 -48 55 -98 31 -30
64 -55 74 -55 35 0 43 66 11 95 -35 32 -25 64 41 138 33 37 66 67 72 67 6 0
26 -14 44 -32 l33 -32 33 32 32 33 -25 22 c-53 48 -54 52 -19 92 l32 36 -39
40 -39 39 -37 -37z"/>
<path d="M3580 7143 c-88 -30 -170 -101 -170 -147 0 -14 -4 -28 -10 -31 -15
-9 -12 -70 6 -125 34 -105 149 -161 256 -126 28 9 66 28 84 41 47 36 95 111
97 154 2 36 2 36 -41 39 -40 3 -43 2 -48 -28 -4 -16 -24 -48 -46 -70 -35 -34
-46 -40 -84 -40 -23 0 -45 4 -49 9 -3 6 32 52 79 103 46 51 94 105 105 119
l20 26 -23 22 c-22 21 -123 62 -148 60 -7 0 -20 -3 -28 -6z m60 -97 c0 -2 3
-11 6 -19 3 -9 -21 -42 -64 -88 l-69 -73 -18 28 c-39 59 28 156 108 156 20 0
37 -2 37 -4z"/>
<path d="M3091 6817 c-31 -51 -28 -80 12 -98 64 -31 238 -132 234 -135 -8 -8
-114 -32 -172 -39 -33 -4 -80 -14 -105 -21 -25 -8 -58 -14 -75 -14 -52 0 -69
-11 -92 -55 -25 -51 -30 -44 87 -107 47 -26 105 -57 130 -70 25 -14 87 -48
138 -76 50 -29 95 -52 100 -52 8 0 52 80 52 95 0 10 -28 27 -169 101 -122 64
-123 65 -59 85 29 10 71 18 93 18 23 1 65 7 95 15 30 7 81 17 112 21 47 5 62
12 83 36 44 53 36 68 -67 124 -172 93 -223 121 -299 163 l-77 43 -21 -34z"/>
<path d="M7207 6662 c-17 -19 -23 -78 -9 -98 11 -17 65 -26 94 -15 14 5 28 20
32 35 7 27 -8 76 -27 88 -22 14 -74 8 -90 -10z"/>
<path d="M7814 6530 c-12 -5 -24 -13 -27 -17 -6 -10 19 -91 33 -108 4 -5 10
-21 12 -35 3 -22 -5 -27 -92 -62 -52 -21 -129 -52 -170 -69 -160 -65 -154 -59
-123 -124 19 -39 52 -47 87 -20 11 8 26 15 33 15 8 0 33 8 56 19 23 10 68 28
99 39 32 12 66 26 75 31 24 13 85 32 90 28 1 -2 16 -35 31 -73 18 -42 35 -70
46 -72 24 -5 66 25 66 46 0 9 -36 105 -79 212 -82 204 -87 211 -137 190z"/>
<path d="M7870 5985 c-110 -81 -319 -215 -338 -215 -40 0 -65 44 -60 103 3 25
-2 30 -35 42 -47 16 -51 10 -51 -77 0 -108 44 -151 184 -181 47 -10 100 -23
118 -29 31 -9 67 -17 245 -51 71 -14 85 -4 71 49 -8 34 -14 38 -59 50 -27 7
-84 18 -125 24 -41 7 -86 18 -99 25 -24 12 -21 15 102 95 136 89 144 100 114
159 -17 34 -28 35 -67 6z"/>
<path d="M3156 5907 c-23 -17 -32 -86 -14 -109 39 -51 128 -18 128 47 0 57
-69 95 -114 62z"/>
<path d="M2637 5502 c-15 -3 -17 -12 -15 -50 l3 -47 65 -2 c36 -2 79 -5 97 -8
l31 -6 -24 -47 c-13 -26 -24 -63 -24 -82 1 -60 43 -134 101 -178 9 -7 39 -16
67 -22 103 -19 195 18 243 98 31 53 32 160 1 201 -27 37 -27 41 -2 41 18 0 20
7 20 56 l0 56 -273 -3 c-149 -2 -280 -5 -290 -7z m420 -123 c84 -52 67 -172
-28 -200 -82 -25 -159 27 -159 108 1 91 105 142 187 92z"/>
<path d="M7459 5470 c-1 -3 -3 -25 -3 -48 -2 -38 1 -45 23 -53 14 -6 50 -9 81
-7 77 3 86 -5 59 -50 -29 -47 -32 -151 -6 -180 9 -10 17 -23 17 -28 0 -28 61
-67 122 -78 130 -24 213 14 259 118 25 57 21 119 -11 173 -10 18 -15 33 -10
33 33 0 58 104 28 115 -19 6 -558 11 -559 5z m388 -121 c15 -5 40 -22 56 -37
21 -20 27 -35 27 -70 0 -37 -6 -50 -34 -78 -28 -28 -42 -34 -75 -34 -78 0
-131 45 -131 111 0 43 30 86 74 105 38 16 47 17 83 3z"/>
<path d="M3140 5011 c-8 -5 -40 -14 -70 -20 -118 -23 -165 -41 -198 -74 -57
-58 -56 -164 3 -242 32 -41 33 -44 15 -50 -16 -5 -19 -12 -14 -33 12 -54 15
-61 34 -67 17 -5 213 34 270 55 14 5 46 11 73 15 42 6 47 9 47 31 0 14 -7 41
-15 60 -12 29 -19 35 -32 29 -10 -5 -66 -17 -125 -28 -84 -16 -113 -18 -132
-9 -58 26 -79 111 -38 154 13 15 43 28 84 36 207 42 198 37 178 111 -9 35 -15
41 -38 41 -15 0 -34 -5 -42 -9z"/>
<path d="M7624 4932 c-21 -16 -52 -53 -67 -82 -24 -45 -29 -66 -30 -132 0 -61
3 -83 16 -95 15 -16 19 -16 50 -1 l33 16 -4 63 c-3 46 0 71 12 94 17 30 62 65
85 65 13 0 15 -86 2 -94 -4 -3 -14 -34 -20 -68 -7 -35 -18 -84 -26 -110 -16
-55 -13 -58 71 -58 132 0 220 100 212 241 -3 58 -8 74 -34 106 -56 69 -86 83
-179 83 -74 0 -86 -3 -121 -28z m220 -118 c45 -46 32 -134 -24 -167 -38 -23
-60 -22 -60 3 0 30 42 190 50 190 4 0 19 -12 34 -26z"/>
<path d="M3268 4544 c-16 -8 -28 -21 -28 -29 0 -7 25 -66 56 -129 31 -64 54
-122 51 -129 -5 -13 -87 -57 -105 -57 -5 0 -32 50 -60 110 -28 61 -56 110 -62
110 -18 0 -70 -30 -70 -40 0 -6 4 -18 10 -28 24 -44 91 -194 88 -197 -14 -14
-104 -52 -110 -47 -7 7 -45 82 -93 185 -19 41 -32 57 -46 57 -32 0 -59 -19
-59 -42 0 -11 29 -80 65 -153 36 -73 65 -137 65 -143 0 -5 9 -21 20 -35 l21
-26 67 34 c37 19 70 35 74 35 9 0 321 151 335 162 8 7 1 30 -27 86 -20 42 -61
125 -89 185 -28 59 -57 107 -64 107 -6 -1 -24 -8 -39 -16z"/>
<path d="M7482 4516 c-30 -28 -63 -74 -86 -119 -31 -62 -36 -82 -36 -142 0
-55 5 -75 22 -101 27 -40 76 -64 129 -64 38 0 46 6 143 105 57 58 110 105 120
105 22 0 56 -36 56 -59 0 -32 -41 -114 -76 -151 -41 -42 -42 -53 -9 -86 l25
-25 29 23 c47 38 87 100 110 166 26 78 27 114 0 166 -27 54 -62 78 -120 84
-63 6 -100 -17 -174 -108 -31 -39 -67 -77 -80 -86 -49 -32 -93 13 -75 76 14
49 56 114 95 148 19 17 35 37 35 45 0 7 -13 26 -29 41 l-29 28 -50 -46z"/>
<path d="M7224 4051 c-59 -42 -91 -85 -108 -146 -28 -93 -3 -138 58 -108 33
15 36 21 36 57 0 54 17 85 60 108 60 33 134 0 174 -76 17 -32 18 -39 6 -62
-22 -40 -61 -75 -93 -81 -30 -6 -47 -34 -47 -79 0 -21 5 -24 35 -24 106 0 205
115 205 237 0 75 -29 127 -95 171 -44 28 -57 32 -121 32 -62 0 -76 -4 -110
-29z"/>
<path d="M3354 3996 c-28 -23 -28 -23 -10 -52 10 -16 29 -40 41 -54 13 -14 26
-35 29 -47 9 -28 39 -38 65 -21 32 20 34 38 5 82 -40 62 -85 116 -94 116 -5 0
-21 -11 -36 -24z"/>
<path d="M3650 3884 c-13 -34 -13 -34 9 -58 19 -21 24 -37 22 -66 0 -9 -35
-46 -76 -84 l-76 -68 -34 38 -33 39 -26 -24 c-32 -30 -32 -41 -1 -75 14 -15
25 -31 25 -35 0 -4 -11 -18 -25 -31 -31 -29 -32 -58 -1 -87 31 -30 54 -29 86
2 27 26 27 26 51 7 21 -18 25 -18 46 -5 25 17 30 52 11 71 -10 10 5 30 69 95
89 90 103 111 103 155 0 51 -81 151 -123 152 -10 0 -22 -11 -27 -26z"/>
<path d="M6977 3772 c-20 -21 -37 -41 -37 -45 0 -4 38 -48 84 -96 101 -108
109 -128 66 -189 l-31 -44 27 -29 c15 -16 35 -29 45 -29 18 0 59 72 59 104 0
14 4 15 20 6 17 -9 26 -7 50 12 52 41 43 58 -108 209 l-138 138 -37 -37z"/>
<path d="M3874 3637 c-16 -23 -47 -64 -70 -92 -64 -79 -87 -125 -87 -175 0
-85 72 -160 169 -176 36 -5 40 -9 36 -29 -3 -18 5 -29 35 -49 l38 -27 23 28
c13 15 70 90 127 167 l105 138 -40 29 c-22 16 -46 29 -53 29 -7 0 -37 -34 -67
-76 -92 -128 -141 -157 -200 -118 -73 49 -69 85 20 204 39 51 70 103 70 115 0
18 -24 43 -66 68 -7 4 -24 -11 -40 -36z"/>
<path d="M6508 3583 l-46 -27 43 -86 43 -85 -48 -1 c-65 -1 -131 -41 -166 -99
-23 -40 -26 -54 -22 -118 4 -87 37 -144 105 -184 39 -23 52 -25 113 -21 83 6
129 32 165 91 14 23 25 36 25 30 0 -23 59 -15 86 12 l25 25 -29 53 c-41 71
-100 180 -174 319 -35 65 -65 118 -68 118 -3 -1 -26 -13 -52 -27z m109 -325
c28 -27 33 -39 33 -79 0 -126 -152 -162 -210 -50 -26 52 -25 91 2 126 48 61
114 62 175 3z"/>
<path d="M6736 3555 c-16 -15 -25 -32 -22 -40 7 -19 56 -88 121 -169 28 -34
61 -79 75 -99 14 -20 33 -37 42 -37 18 0 87 41 88 52 0 6 -143 199 -216 291
-27 34 -53 34 -88 2z"/>
<path d="M4335 3331 c-75 -18 -138 -83 -154 -160 -19 -92 1 -156 70 -215 55
-47 96 -59 185 -54 70 3 75 5 115 43 58 56 71 87 71 165 1 53 -4 76 -21 104
-29 46 -94 93 -155 111 -54 16 -65 17 -111 6z m115 -106 c37 -19 70 -66 70
-99 0 -27 -36 -92 -61 -112 -40 -32 -116 -22 -149 18 -44 54 -33 128 28 178
41 33 69 37 112 15z"/>
<path d="M6000 3192 c-51 -28 -59 -46 -31 -76 18 -20 28 -23 42 -16 25 14 76
12 86 -2 10 -17 62 -169 63 -185 0 -7 -18 -18 -39 -24 -46 -14 -55 -28 -41
-65 10 -25 13 -26 65 -19 l54 6 11 -40 c12 -45 18 -47 85 -30 l43 11 -15 44
c-18 54 -12 74 23 74 14 0 24 3 22 8 -2 4 -10 24 -18 45 -10 27 -18 36 -30 31
-38 -16 -44 -9 -79 94 -45 131 -75 162 -154 162 -32 0 -66 -7 -87 -18z"/>
<path d="M7042 3173 c-32 -28 -38 -67 -13 -92 12 -12 32 -21 45 -21 36 0 76
37 76 69 0 54 -65 80 -108 44z"/>
<path d="M4835 3158 c-2 -7 -13 -49 -25 -93 -40 -152 -54 -169 -131 -168 -45
1 -51 -2 -64 -28 -22 -42 -19 -69 8 -70 39 -2 80 3 104 12 19 7 23 5 23 -12 0
-14 13 -26 46 -40 25 -12 48 -19 50 -17 2 3 8 25 14 49 19 87 73 294 83 316
14 31 3 49 -33 57 -48 9 -70 7 -75 -6z"/>
<path d="M5619 3118 c-8 -7 -20 -25 -27 -40 -9 -23 -8 -32 11 -60 28 -41 63
-47 100 -18 19 16 27 31 27 54 0 58 -70 98 -111 64z"/>
<path d="M5276 3072 c-3 -20 -6 -62 -6 -93 0 -74 -13 -85 -77 -70 -27 6 -79
12 -118 13 l-70 3 0 -45 0 -45 95 -7 c114 -8 154 -19 158 -41 2 -9 -2 -42 -8
-72 l-12 -56 -106 6 c-59 4 -118 8 -130 11 -13 3 -30 0 -38 -7 -15 -12 -19
-74 -6 -83 16 -10 383 -29 392 -20 5 5 13 65 19 134 6 69 15 185 22 258 6 73
10 134 8 136 -2 2 -29 6 -60 10 l-56 6 -7 -38z"/>
</g>
</svg>
